<?xml version="1.0" encoding="UTF-8" standalone="no" ?>
<!DOCTYPE svg PUBLIC "-//W3C//DTD SVG 1.1//EN" "http://www.w3.org/Graphics/SVG/1.1/DTD/svg11.dtd">
<svg xmlns="http://www.w3.org/2000/svg" xmlns:xlink="http://www.w3.org/1999/xlink" version="1.1" width="1477.9392476873227" height="1227.35" viewBox="-732.18 -286.78 1477.9392476873227 1227.35" xml:space="preserve">
<desc>Created with Fabric.js 5.2.1</desc>
<defs>
</defs>
<rect x="0" y="0" width="100%" height="100%" fill="transparent"></rect>
<g transform="matrix(1 0 0 1 -441.61 669.96)" id="zt5dUomhCd"  >
<g style="" vector-effect="non-scaling-stroke"   >
		<g transform="matrix(1 0 0 1 0 -3.32)"  >
<path style="stroke: rgb(255,0,0); stroke-width: 2; stroke-dasharray: none; stroke-linecap: round; stroke-dashoffset: 0; stroke-linejoin: miter; stroke-miterlimit: 4; fill: none; fill-rule: nonzero; opacity: 1;"  transform=" translate(442.11, -666.14)" d="M -641.3767541272921 428.3499999999999 Q -552.6541666666667 907.0425 -242.8400000000001 903.3658165949885" stroke-linecap="round" />
</g>
		<g transform="matrix(0.01 1 -1 0.01 190.27 233.51)"  >
<polygon style="stroke: rgb(255,0,0); stroke-width: 2; stroke-dasharray: none; stroke-linecap: round; stroke-dashoffset: 0; stroke-linejoin: miter; stroke-miterlimit: 4; fill: rgb(255,0,0); fill-rule: nonzero; opacity: 1;"  points="-7.5 7.5,0 -7.5,7.5 7.5" /></g>
</g>
</g>
<g transform="matrix(1 0 0 1 -443.72 48.41)" id="X1nRD0RNQS"  >
<g style="" vector-effect="non-scaling-stroke"   >
		<g transform="matrix(1 0 0 1 0 4)"  >
<path style="stroke: rgb(255,0,0); stroke-width: 2; stroke-dasharray: none; stroke-linecap: round; stroke-dashoffset: 0; stroke-linejoin: miter; stroke-miterlimit: 4; fill: none; fill-rule: nonzero; opacity: 1;"  transform=" translate(444.22, -51.91)" d="M -645.6035957088977 275.1400000000003 Q -587.8923968041845 -168.22447134537535 -242.84000000000003 -171.31562645511133" stroke-linecap="round" />
</g>
		<g transform="matrix(0.01 1 -1 0.01 192.38 -219.65)"  >
<polygon style="stroke: rgb(255,0,0); stroke-width: 2; stroke-dasharray: none; stroke-linecap: round; stroke-dashoffset: 0; stroke-linejoin: miter; stroke-miterlimit: 4; fill: rgb(255,0,0); fill-rule: nonzero; opacity: 1;"  points="-7.5 7.5,0 -7.5,7.5 7.5" /></g>
</g>
</g>
<g transform="matrix(1 0 0 1 -439.03 607.26)" id="8q8zRmgmU4"  >
<g style="" vector-effect="non-scaling-stroke"   >
		<g transform="matrix(1 0 0 1 0 -3.5)"  >
<path style="stroke: rgb(255,0,0); stroke-width: 2; stroke-dasharray: none; stroke-linecap: round; stroke-dashoffset: 0; stroke-linejoin: miter; stroke-miterlimit: 4; fill: none; fill-rule: nonzero; opacity: 1;"  transform=" translate(439.53, -603.27)" d="M -636.2224889191668 428.3500000000002 Q -550.6028846153845 767.2667307692307 -242.8400000000001 778.1837774037675" stroke-linecap="round" />
</g>
		<g transform="matrix(-0.04 1 -1 -0.04 187.7 170.62)"  >
<polygon style="stroke: rgb(255,0,0); stroke-width: 2; stroke-dasharray: none; stroke-linecap: round; stroke-dashoffset: 0; stroke-linejoin: miter; stroke-miterlimit: 4; fill: rgb(255,0,0); fill-rule: nonzero; opacity: 1;"  points="-7.5 7.5,0 -7.5,7.5 7.5" /></g>
</g>
</g>
<g transform="matrix(1 0 0 1 -434.29 103.15)" id="V_1ntPKiaS"  >
<g style="" vector-effect="non-scaling-stroke"   >
		<g transform="matrix(1 0 0 1 0 4)"  >
<path style="stroke: rgb(255,0,0); stroke-width: 2; stroke-dasharray: none; stroke-linecap: round; stroke-dashoffset: 0; stroke-linejoin: miter; stroke-miterlimit: 4; fill: none; fill-rule: nonzero; opacity: 1;"  transform=" translate(434.79, -106.65)" d="M -626.7354615812973 275.13999999999993 Q -500.9860927246574 -58.881656706399156 -242.84000000000015 -61.8470429378232" stroke-linecap="round" />
</g>
		<g transform="matrix(0.01 1 -1 0.01 182.95 -164.9)"  >
<polygon style="stroke: rgb(255,0,0); stroke-width: 2; stroke-dasharray: none; stroke-linecap: round; stroke-dashoffset: 0; stroke-linejoin: miter; stroke-miterlimit: 4; fill: rgb(255,0,0); fill-rule: nonzero; opacity: 1;"  points="-7.5 7.5,0 -7.5,7.5 7.5" /></g>
</g>
</g>
<g transform="matrix(1 0 0 1 -432.56 551.09)" id="pc1X6AzDPX"  >
<g style="" vector-effect="non-scaling-stroke"   >
		<g transform="matrix(1 0 0 1 0 -2.98)"  >
<path style="stroke: rgb(255,0,0); stroke-width: 2; stroke-dasharray: none; stroke-linecap: round; stroke-dashoffset: 0; stroke-linejoin: miter; stroke-miterlimit: 4; fill: none; fill-rule: nonzero; opacity: 1;"  transform=" translate(433.06, -547.61)" d="M -623.2890040004905 428.34999999999997 Q -520.9874999999998 671.0808333333335 -242.8400000000001 665.4880662620999" stroke-linecap="round" />
</g>
		<g transform="matrix(0.02 1 -1 0.02 181.23 114.57)"  >
<polygon style="stroke: rgb(255,0,0); stroke-width: 2; stroke-dasharray: none; stroke-linecap: round; stroke-dashoffset: 0; stroke-linejoin: miter; stroke-miterlimit: 4; fill: rgb(255,0,0); fill-rule: nonzero; opacity: 1;"  points="-7.5 7.5,0 -7.5,7.5 7.5" /></g>
</g>
</g>
<g transform="matrix(1 0 0 1 -426.47 159.05)" id="v_KNSaI03-"  >
<g style="" vector-effect="non-scaling-stroke"   >
		<g transform="matrix(1 0 0 1 0 3.57)"  >
<path style="stroke: rgb(255,0,0); stroke-width: 2; stroke-dasharray: none; stroke-linecap: round; stroke-dashoffset: 0; stroke-linejoin: miter; stroke-miterlimit: 4; fill: none; fill-rule: nonzero; opacity: 1;"  transform=" translate(426.97, -162.12)" d="M -611.0993627528542 275.14 Q -477.6530766025747 45.29162944746312 -242.84 50.32166395732133" stroke-linecap="round" />
</g>
		<g transform="matrix(-0.02 1 -1 -0.02 175.13 -108.91)"  >
<polygon style="stroke: rgb(255,0,0); stroke-width: 2; stroke-dasharray: none; stroke-linecap: round; stroke-dashoffset: 0; stroke-linejoin: miter; stroke-miterlimit: 4; fill: rgb(255,0,0); fill-rule: nonzero; opacity: 1;"  points="-7.5 7.5,0 -7.5,7.5 7.5" /></g>
</g>
</g>
<g transform="matrix(1 0 0 1 207.95 607.74)" id="lvuJbSnyAE"  >
<g style=""   >
		<g transform="matrix(1 0 0 1 0 3.96)"  >
<path style="stroke: rgb(255,0,0); stroke-width: 2; stroke-dasharray: none; stroke-linecap: round; stroke-dashoffset: 0; stroke-linejoin: miter; stroke-miterlimit: 4; fill: none; fill-rule: nonzero; opacity: 1;"  transform=" translate(-207.45, -611.2)" d="M -69.96000000000002 651.265539304557 Q 229.18555872772126 608.0601833333333 484.8622488622492 571.133001603515" stroke-linecap="round" />
</g>
		<g transform="matrix(0.14 0.99 -0.99 0.14 268.5 -35.39)"  >
<polygon style="stroke: rgb(255,0,0); stroke-width: 2; stroke-dasharray: none; stroke-linecap: round; stroke-dashoffset: 0; stroke-linejoin: miter; stroke-miterlimit: 4; fill: rgb(255,0,0); fill-rule: nonzero; opacity: 1;"  points="-7.5 7.5,0 -7.5,7.5 7.5" /></g>
</g>
</g>
<g transform="matrix(1 0 0 1 207.9 713.06)" id="xg4MRDtE3V"  >
<g style="" vector-effect="non-scaling-stroke"   >
		<g transform="matrix(1 0 0 1 0 -3.47)"  >
<path style="stroke: rgb(255,0,0); stroke-width: 2; stroke-dasharray: none; stroke-linecap: round; stroke-dashoffset: 0; stroke-linejoin: miter; stroke-miterlimit: 4; fill: none; fill-rule: nonzero; opacity: 1;"  transform=" translate(-207.4, -709.1)" d="M -69.96000000000001 674.5242173349251 Q 229.4321238436613 711.8416144966145 484.76924768732255 743.6678253476823" stroke-linecap="round" />
</g>
		<g transform="matrix(-0.12 0.99 -0.99 -0.12 268.43 29.55)"  >
<polygon style="stroke: rgb(255,0,0); stroke-width: 2; stroke-dasharray: none; stroke-linecap: round; stroke-dashoffset: 0; stroke-linejoin: miter; stroke-miterlimit: 4; fill: rgb(255,0,0); fill-rule: nonzero; opacity: 1;"  points="-7.5 7.5,0 -7.5,7.5 7.5" /></g>
</g>
</g>
<g transform="matrix(1 0 0 1 -418.85 485.3)" id="f0MrLz2ps-"  >
<g style="" vector-effect="non-scaling-stroke"   >
		<g transform="matrix(1 0 0 1 0 -3.5)"  >
<path style="stroke: rgb(255,0,0); stroke-width: 2; stroke-dasharray: none; stroke-linecap: round; stroke-dashoffset: 0; stroke-linejoin: miter; stroke-miterlimit: 4; fill: none; fill-rule: nonzero; opacity: 1;"  transform=" translate(419.35, -481.3)" d="M -595.8679997494816 428.35 Q -515.5708333333334 531.3725 -242.8400000000001 534.2535419465357" stroke-linecap="round" />
</g>
		<g transform="matrix(-0.01 1 -1 -0.01 167.51 48.86)"  >
<polygon style="stroke: rgb(255,0,0); stroke-width: 2; stroke-dasharray: none; stroke-linecap: round; stroke-dashoffset: 0; stroke-linejoin: miter; stroke-miterlimit: 4; fill: rgb(255,0,0); fill-rule: nonzero; opacity: 1;"  points="-7.5 7.5,0 -7.5,7.5 7.5" /></g>
</g>
</g>
<g transform="matrix(1 0 0 1 -410.4 224.1)" id="P2sxMqc9p2"  >
<g style="" vector-effect="non-scaling-stroke"   >
		<g transform="matrix(1 0 0 1 0 4)"  >
<path style="stroke: rgb(255,0,0); stroke-width: 2; stroke-dasharray: none; stroke-linecap: round; stroke-dashoffset: 0; stroke-linejoin: miter; stroke-miterlimit: 4; fill: none; fill-rule: nonzero; opacity: 1;"  transform=" translate(410.9, -227.6)" d="M -578.9699999999999 280.6769029576732 Q -469.32217693473086 178.95427218837068 -242.84 174.52414975232998" stroke-linecap="round" />
</g>
		<g transform="matrix(0.02 1 -1 0.02 159.07 -49.41)"  >
<polygon style="stroke: rgb(255,0,0); stroke-width: 2; stroke-dasharray: none; stroke-linecap: round; stroke-dashoffset: 0; stroke-linejoin: miter; stroke-miterlimit: 4; fill: rgb(255,0,0); fill-rule: nonzero; opacity: 1;"  points="-7.5 7.5,0 -7.5,7.5 7.5" /></g>
</g>
</g>
<g transform="matrix(1 0 0 1 -655.57 351.75)" id="Tf-lH-GE0"  >
<g style="" vector-effect="non-scaling-stroke"   >
		<g transform="matrix(1.06 0 0 1.06 0.19 0.19)" id="_YVnC3Kvj"  >
<circle style="stroke: rgb(45,62,80); stroke-width: 2; stroke-dasharray: none; stroke-linecap: butt; stroke-dashoffset: 0; stroke-linejoin: miter; stroke-miterlimit: 4; fill: rgb(255,255,255); fill-opacity: 0; fill-rule: nonzero; opacity: 1;" vector-effect="non-scaling-stroke"  cx="0" cy="0" r="71.5" />
</g>
		<g transform="matrix(1.78 0 0 1.78 0 0)" style="" id="hXIsZtP2Ws"  >
		<text xml:space="preserve" font-family="Handlee" font-size="22" font-style="normal" font-weight="normal" style="stroke: rgb(45,62,80); stroke-width: 1; stroke-dasharray: none; stroke-linecap: butt; stroke-dashoffset: 0; stroke-linejoin: miter; stroke-miterlimit: 4; fill: rgb(45,62,80); fill-rule: nonzero; opacity: 1; white-space: pre;" ><tspan x="-27.49" y="6.91" >App.js</tspan></text>
</g>
		<g transform="matrix(1 0 0 1 -27.34 -11.34)" id="MudtCHaWig"  >
<circle style="stroke: rgb(45,62,80); stroke-width: 2; stroke-dasharray: none; stroke-linecap: butt; stroke-dashoffset: 0; stroke-linejoin: miter; stroke-miterlimit: 4; fill: rgb(255,255,255); fill-opacity: 0; fill-rule: nonzero; opacity: 1;"  cx="0" cy="0" r="0" />
</g>
		<g transform="matrix(1 0 0 1 -21.34 -1.34)" id="5OlhydOA2v"  >
<circle style="stroke: rgb(45,62,80); stroke-width: 2; stroke-dasharray: none; stroke-linecap: butt; stroke-dashoffset: 0; stroke-linejoin: miter; stroke-miterlimit: 4; fill: rgb(255,255,255); fill-opacity: 0; fill-rule: nonzero; opacity: 1;"  cx="0" cy="0" r="0" />
</g>
		<g transform="matrix(1 0 0 1 -21.34 -1.34)" id="lgYdYqdV2S"  >
<circle style="stroke: rgb(45,62,80); stroke-width: 2; stroke-dasharray: none; stroke-linecap: butt; stroke-dashoffset: 0; stroke-linejoin: miter; stroke-miterlimit: 4; fill: rgb(255,255,255); fill-opacity: 0; fill-rule: nonzero; opacity: 1;"  cx="0" cy="0" r="0" />
</g>
</g>
</g>
<g transform="matrix(0.97 0 0 1.02 615.26 656.06)" id="8CNNncz4s"  >
<rect style="stroke: rgb(45,62,80); stroke-width: 2; stroke-dasharray: none; stroke-linecap: butt; stroke-dashoffset: 0; stroke-linejoin: miter; stroke-miterlimit: 4; fill: rgb(255,255,255); fill-opacity: 0; fill-rule: nonzero; opacity: 1;" vector-effect="non-scaling-stroke"  x="-133.5" y="-36.5" rx="0" ry="0" width="267" height="73" />
</g>
<g transform="matrix(0.97 0 0 1.02 615.26 759.93)" id="lUcXPB7y1"  >
<rect style="stroke: rgb(45,62,80); stroke-width: 2; stroke-dasharray: none; stroke-linecap: butt; stroke-dashoffset: 0; stroke-linejoin: miter; stroke-miterlimit: 4; fill: rgb(255,255,255); fill-opacity: 0; fill-rule: nonzero; opacity: 1;" vector-effect="non-scaling-stroke"  x="-133.5" y="-36.5" rx="0" ry="0" width="267" height="73" />
</g>
<g transform="matrix(0.97 0 0 1.02 614.77 552.37)" id="jLeGwI0vd"  >
<rect style="stroke: rgb(45,62,80); stroke-width: 2; stroke-dasharray: none; stroke-linecap: butt; stroke-dashoffset: 0; stroke-linejoin: miter; stroke-miterlimit: 4; fill: rgb(255,255,255); fill-opacity: 0; fill-rule: nonzero; opacity: 1;" vector-effect="non-scaling-stroke"  x="-133.5" y="-36.5" rx="0" ry="0" width="267" height="73" />
</g>
<g transform="matrix(1 0 0 1 -410.4 306.3)" id="6nwPUrS-nc"  >
<g style="" vector-effect="non-scaling-stroke"   >
		<g transform="matrix(1 0 0 1 0 4)"  >
<path style="stroke: rgb(255,0,0); stroke-width: 2; stroke-dasharray: none; stroke-linecap: round; stroke-dashoffset: 0; stroke-linejoin: miter; stroke-miterlimit: 4; fill: none; fill-rule: nonzero; opacity: 1;"  transform=" translate(410.9, -309.79)" d="M -578.9699999999999 331.69732308903235 Q -422.6541666666667 290.7891666666666 -242.84000000000006 287.8924873789142" stroke-linecap="round" />
</g>
		<g transform="matrix(0.02 1 -1 0.02 159.07 -18.27)"  >
<polygon style="stroke: rgb(255,0,0); stroke-width: 2; stroke-dasharray: none; stroke-linecap: round; stroke-dashoffset: 0; stroke-linejoin: miter; stroke-miterlimit: 4; fill: rgb(255,0,0); fill-rule: nonzero; opacity: 1;"  points="-7.5 7.5,0 -7.5,7.5 7.5" /></g>
</g>
</g>
<g transform="matrix(1 0 0 1 224.82 -125.97)" id="sDQZTPIDo"  >
<g style="" vector-effect="non-scaling-stroke"   >
		<g transform="matrix(0.84 0 0 1.02 0 0)" id="rSQTEM2qm"  >
<rect style="stroke: rgb(45,62,80); stroke-width: 2; stroke-dasharray: none; stroke-linecap: butt; stroke-dashoffset: 0; stroke-linejoin: miter; stroke-miterlimit: 4; fill: rgb(255,255,255); fill-opacity: 0; fill-rule: nonzero; opacity: 1;" vector-effect="non-scaling-stroke"  x="-133.5" y="-36.5" rx="0" ry="0" width="267" height="73" />
</g>
		<g transform="matrix(1.39 0 0 1.3 0 0)" style="" id="qhWH7vYrLJ"  >
		<text xml:space="preserve" font-family="Handlee" font-size="22" font-style="normal" font-weight="normal" style="stroke: rgb(45,62,80); stroke-width: 1; stroke-dasharray: none; stroke-linecap: butt; stroke-dashoffset: 0; stroke-linejoin: miter; stroke-miterlimit: 4; fill: rgb(45,62,80); fill-rule: nonzero; opacity: 1; white-space: pre;" ><tspan x="-58.53" y="6.91" >AccountBtns</tspan></text>
</g>
</g>
</g>
<g transform="matrix(0.84 0 0 1.02 224.32 -248.55)" id="rSQTEM2qm"  >
<rect style="stroke: rgb(45,62,80); stroke-width: 2; stroke-dasharray: none; stroke-linecap: butt; stroke-dashoffset: 0; stroke-linejoin: miter; stroke-miterlimit: 4; fill: rgb(255,255,255); fill-opacity: 0; fill-rule: nonzero; opacity: 1;" vector-effect="non-scaling-stroke"  x="-133.5" y="-36.5" rx="0" ry="0" width="267" height="73" />
</g>
<g transform="matrix(1.17 0 0 1 230.52 407.5)" id="QVUzshgtE"  >
<g style="" vector-effect="non-scaling-stroke"   >
		<g transform="matrix(0.64 0 0 1.02 0 0)" id="9GyjHV-eE"  >
<rect style="stroke: rgb(45,62,80); stroke-width: 2; stroke-dasharray: none; stroke-linecap: butt; stroke-dashoffset: 0; stroke-linejoin: miter; stroke-miterlimit: 4; fill: rgb(255,255,255); fill-opacity: 0; fill-rule: nonzero; opacity: 1;" vector-effect="non-scaling-stroke"  x="-133.5" y="-36.5" rx="0" ry="0" width="267" height="73" />
</g>
		<g transform="matrix(1.41 0 0 1.41 2.07 0)" style="" id="VAwZhA47oZ"  >
		<text xml:space="preserve" font-family="Handlee" font-size="22" font-style="normal" font-weight="normal" style="stroke: rgb(45,62,80); stroke-width: 1; stroke-dasharray: none; stroke-linecap: butt; stroke-dashoffset: 0; stroke-linejoin: miter; stroke-miterlimit: 4; fill: rgb(45,62,80); fill-rule: nonzero; opacity: 1; white-space: pre;" ><tspan x="-43.74" y="6.91" >CalcForm</tspan></text>
</g>
</g>
</g>
<g transform="matrix(1 0 0 1 229.41 781.25)" id="r809jlrBF"  >
<g style="" vector-effect="non-scaling-stroke"   >
		<g transform="matrix(0.75 0 0 1.02 0 0)" id="KtwjgWe0S"  >
<rect style="stroke: rgb(45,62,80); stroke-width: 2; stroke-dasharray: none; stroke-linecap: butt; stroke-dashoffset: 0; stroke-linejoin: miter; stroke-miterlimit: 4; fill: rgb(255,255,255); fill-opacity: 0; fill-rule: nonzero; opacity: 1;" vector-effect="non-scaling-stroke"  x="-133.5" y="-36.5" rx="0" ry="0" width="267" height="73" />
</g>
		<g transform="matrix(1.18 0 0 1.18 -1.42 0.06)" style="" id="NbZFuDcNrw"  >
		<text xml:space="preserve" font-family="Handlee" font-size="22" font-style="normal" font-weight="normal" style="stroke: rgb(45,62,80); stroke-width: 1; stroke-dasharray: none; stroke-linecap: butt; stroke-dashoffset: 0; stroke-linejoin: miter; stroke-miterlimit: 4; fill: rgb(45,62,80); fill-rule: nonzero; opacity: 1; white-space: pre;" ><tspan x="-74.68" y="6.91" >NewsletterForm</tspan></text>
</g>
</g>
</g>
<g transform="matrix(1 0 0 1 -410.4 394.71)" id="4Pf7OK2fV1"  >
<g style="" vector-effect="non-scaling-stroke"   >
		<g transform="matrix(1 0 0 1 0 -3.13)"  >
<path style="stroke: rgb(255,0,0); stroke-width: 2; stroke-dasharray: none; stroke-linecap: round; stroke-dashoffset: 0; stroke-linejoin: miter; stroke-miterlimit: 4; fill: none; fill-rule: nonzero; opacity: 1;"  transform=" translate(410.9, -391.08)" d="M -578.9699999999999 372.5174979222406 Q -435.98749999999995 411.28916666666663 -242.84 408.6714957452199" stroke-linecap="round" />
</g>
		<g transform="matrix(0.01 1 -1 0.01 159.07 14.08)"  >
<polygon style="stroke: rgb(255,0,0); stroke-width: 2; stroke-dasharray: none; stroke-linecap: round; stroke-dashoffset: 0; stroke-linejoin: miter; stroke-miterlimit: 4; fill: rgb(255,0,0); fill-rule: nonzero; opacity: 1;"  points="-7.5 7.5,0 -7.5,7.5 7.5" /></g>
</g>
</g>
<g transform="matrix(0.75 0 0 1.02 229.41 533.26)" id="9GyjHV-eE"  >
<rect style="stroke: rgb(45,62,80); stroke-width: 2; stroke-dasharray: none; stroke-linecap: butt; stroke-dashoffset: 0; stroke-linejoin: miter; stroke-miterlimit: 4; fill: rgb(255,255,255); fill-opacity: 0; fill-rule: nonzero; opacity: 1;" vector-effect="non-scaling-stroke"  x="-133.5" y="-36.5" rx="0" ry="0" width="267" height="73" />
</g>
<g transform="matrix(1 0 0 1 -156.4 535.17)" id="uncBCRxTj"  >
<g style="" vector-effect="non-scaling-stroke"   >
		<g transform="matrix(0.64 0 0 1.02 0 0)" id="a2tpIhhhy"  >
<rect style="stroke: rgb(45,62,80); stroke-width: 2; stroke-dasharray: none; stroke-linecap: butt; stroke-dashoffset: 0; stroke-linejoin: miter; stroke-miterlimit: 4; fill: rgb(255,255,255); fill-opacity: 0; fill-rule: nonzero; opacity: 1;" vector-effect="non-scaling-stroke"  x="-133.5" y="-36.5" rx="0" ry="0" width="267" height="73" />
</g>
		<g transform="matrix(1.41 0 0 1.41 -4.79 0)" style="" id="Pfyqup8ihc"  >
		<text xml:space="preserve" font-family="Handlee" font-size="22" font-style="normal" font-weight="normal" style="stroke: rgb(45,62,80); stroke-width: 1; stroke-dasharray: none; stroke-linecap: butt; stroke-dashoffset: 0; stroke-linejoin: miter; stroke-miterlimit: 4; fill: rgb(45,62,80); fill-rule: nonzero; opacity: 1; white-space: pre;" ><tspan x="-25.06" y="6.91" >Trade</tspan></text>
</g>
</g>
</g>
<g transform="matrix(1 0 0 1 -156.4 407.5)" id="n8_g4tl9i"  >
<g style="" vector-effect="non-scaling-stroke"   >
		<g transform="matrix(0.64 0 0 1.02 0 0)" id="9GyjHV-eE"  >
<rect style="stroke: rgb(45,62,80); stroke-width: 2; stroke-dasharray: none; stroke-linecap: butt; stroke-dashoffset: 0; stroke-linejoin: miter; stroke-miterlimit: 4; fill: rgb(255,255,255); fill-opacity: 0; fill-rule: nonzero; opacity: 1;" vector-effect="non-scaling-stroke"  x="-133.5" y="-36.5" rx="0" ry="0" width="267" height="73" />
</g>
		<g transform="matrix(1.41 0 0 1.41 0 0)" style="" id="VAwZhA47oZ"  >
		<text xml:space="preserve" font-family="Handlee" font-size="22" font-style="normal" font-weight="normal" style="stroke: rgb(45,62,80); stroke-width: 1; stroke-dasharray: none; stroke-linecap: butt; stroke-dashoffset: 0; stroke-linejoin: miter; stroke-miterlimit: 4; fill: rgb(45,62,80); fill-rule: nonzero; opacity: 1; white-space: pre;" ><tspan x="-42.27" y="6.91" >Calculate</tspan></text>
</g>
</g>
</g>
<g transform="matrix(1 0 0 1 -156.4 286.5)" id="lq_ra3g26"  >
<g style="" vector-effect="non-scaling-stroke"   >
		<g transform="matrix(0.64 0 0 1.02 0 0)" id="zmTtgJ6ec"  >
<rect style="stroke: rgb(45,62,80); stroke-width: 2; stroke-dasharray: none; stroke-linecap: butt; stroke-dashoffset: 0; stroke-linejoin: miter; stroke-miterlimit: 4; fill: rgb(255,255,255); fill-opacity: 0; fill-rule: nonzero; opacity: 1;" vector-effect="non-scaling-stroke"  x="-133.5" y="-36.5" rx="0" ry="0" width="267" height="73" />
</g>
		<g transform="matrix(1.41 0 0 1.41 0 0)" style="" id="0rJQSgHK26"  >
		<text xml:space="preserve" font-family="Handlee" font-size="22" font-style="normal" font-weight="normal" style="stroke: rgb(45,62,80); stroke-width: 1; stroke-dasharray: none; stroke-linecap: butt; stroke-dashoffset: 0; stroke-linejoin: miter; stroke-miterlimit: 4; fill: rgb(45,62,80); fill-rule: nonzero; opacity: 1; white-space: pre;" ><tspan x="-21.66" y="6.91" >Why</tspan></text>
</g>
</g>
</g>
<g transform="matrix(1 0 0 1 -156.4 172.83)" id="Iybw889P8"  >
<g style="" vector-effect="non-scaling-stroke"   >
		<g transform="matrix(0.64 0 0 1.02 0 0)" id="FNz3SUQzp"  >
<rect style="stroke: rgb(45,62,80); stroke-width: 2; stroke-dasharray: none; stroke-linecap: butt; stroke-dashoffset: 0; stroke-linejoin: miter; stroke-miterlimit: 4; fill: rgb(255,255,255); fill-opacity: 0; fill-rule: nonzero; opacity: 1;" vector-effect="non-scaling-stroke"  x="-133.5" y="-36.5" rx="0" ry="0" width="267" height="73" />
</g>
		<g transform="matrix(1.41 0 0 1.41 1.94 0)" style="" id="fN_m5-wnkt"  >
		<text xml:space="preserve" font-family="Handlee" font-size="22" font-style="normal" font-weight="normal" style="stroke: rgb(45,62,80); stroke-width: 1; stroke-dasharray: none; stroke-linecap: butt; stroke-dashoffset: 0; stroke-linejoin: miter; stroke-miterlimit: 4; fill: rgb(45,62,80); fill-rule: nonzero; opacity: 1; white-space: pre;" ><tspan x="-24.4" y="6.91" >Stats</tspan></text>
</g>
</g>
</g>
<g transform="matrix(1 0 0 1 -156.4 52.17)" id="NbFG40jHs"  >
<g style="" vector-effect="non-scaling-stroke"   >
		<g transform="matrix(0.64 0 0 1.02 0 0)" id="1C7IE5ZOj"  >
<rect style="stroke: rgb(45,62,80); stroke-width: 2; stroke-dasharray: none; stroke-linecap: butt; stroke-dashoffset: 0; stroke-linejoin: miter; stroke-miterlimit: 4; fill: rgb(255,255,255); fill-opacity: 0; fill-rule: nonzero; opacity: 1;" vector-effect="non-scaling-stroke"  x="-133.5" y="-36.5" rx="0" ry="0" width="267" height="73" />
</g>
		<g transform="matrix(1.41 0 0 1.41 -0.02 0)" style="" id="FzXPYrGT_6"  >
		<text xml:space="preserve" font-family="Handlee" font-size="22" font-style="normal" font-weight="normal" style="stroke: rgb(45,62,80); stroke-width: 1; stroke-dasharray: none; stroke-linecap: butt; stroke-dashoffset: 0; stroke-linejoin: miter; stroke-miterlimit: 4; fill: rgb(45,62,80); fill-rule: nonzero; opacity: 1; white-space: pre;" ><tspan x="-48.02" y="6.91" >NavMobile</tspan></text>
</g>
</g>
</g>
<g transform="matrix(1 0 0 1 -156.4 -62.84)" id="IkiU_B4PO"  >
<g style="" vector-effect="non-scaling-stroke"   >
		<g transform="matrix(0.64 0 0 1.02 0 0)" id="rSQTEM2qm"  >
<rect style="stroke: rgb(45,62,80); stroke-width: 2; stroke-dasharray: none; stroke-linecap: butt; stroke-dashoffset: 0; stroke-linejoin: miter; stroke-miterlimit: 4; fill: rgb(255,255,255); fill-opacity: 0; fill-rule: nonzero; opacity: 1;" vector-effect="non-scaling-stroke"  x="-133.5" y="-36.5" rx="0" ry="0" width="267" height="73" />
</g>
		<g transform="matrix(1.6 0 0 1.3 0 0)" style="" id="A4T9wtfyPs"  >
		<text xml:space="preserve" font-family="Handlee" font-size="22" font-style="normal" font-weight="normal" style="stroke: rgb(45,62,80); stroke-width: 1; stroke-dasharray: none; stroke-linecap: butt; stroke-dashoffset: 0; stroke-linejoin: miter; stroke-miterlimit: 4; fill: rgb(45,62,80); fill-rule: nonzero; opacity: 1; white-space: pre;" ><tspan x="-22.71" y="6.91" >Hero</tspan></text>
</g>
</g>
</g>
<g transform="matrix(1 0 0 1 -156.4 -172.09)" id="08qS1JUYD"  >
<g style="" vector-effect="non-scaling-stroke"   >
		<g transform="matrix(0.64 0 0 1.02 0 0)" id="rSQTEM2qm"  >
<rect style="stroke: rgb(45,62,80); stroke-width: 2; stroke-dasharray: none; stroke-linecap: butt; stroke-dashoffset: 0; stroke-linejoin: miter; stroke-miterlimit: 4; fill: rgb(255,255,255); fill-opacity: 0; fill-rule: nonzero; opacity: 1;" vector-effect="non-scaling-stroke"  x="-133.5" y="-36.5" rx="0" ry="0" width="267" height="73" />
</g>
		<g transform="matrix(1.6 0 0 1.3 0.08 -0.13)" style="" id="A4T9wtfyPs"  >
		<text xml:space="preserve" font-family="Handlee" font-size="22" font-style="normal" font-weight="normal" style="stroke: rgb(45,62,80); stroke-width: 1; stroke-dasharray: none; stroke-linecap: butt; stroke-dashoffset: 0; stroke-linejoin: miter; stroke-miterlimit: 4; fill: rgb(45,62,80); fill-rule: nonzero; opacity: 1; white-space: pre;" ><tspan x="-32.42" y="6.91" >Header</tspan></text>
</g>
</g>
</g>
<g transform="matrix(1 0 0 1 -156.4 663.75)" id="mttSi3j3q"  >
<g style="" vector-effect="non-scaling-stroke"   >
		<g transform="matrix(0.64 0 0 1.02 0 0)" id="cYHxLwb8A"  >
<rect style="stroke: rgb(45,62,80); stroke-width: 2; stroke-dasharray: none; stroke-linecap: butt; stroke-dashoffset: 0; stroke-linejoin: miter; stroke-miterlimit: 4; fill: rgb(255,255,255); fill-opacity: 0; fill-rule: nonzero; opacity: 1;" vector-effect="non-scaling-stroke"  x="-133.5" y="-36.5" rx="0" ry="0" width="267" height="73" />
</g>
		<g transform="matrix(1.41 0 0 1.41 0 0)" style="" id="kGOk99wA3g"  >
		<text xml:space="preserve" font-family="Handlee" font-size="22" font-style="normal" font-weight="normal" style="stroke: rgb(45,62,80); stroke-width: 1; stroke-dasharray: none; stroke-linecap: butt; stroke-dashoffset: 0; stroke-linejoin: miter; stroke-miterlimit: 4; fill: rgb(45,62,80); fill-rule: nonzero; opacity: 1; white-space: pre;" ><tspan x="-39.21" y="6.91" >Features</tspan></text>
</g>
</g>
</g>
<g transform="matrix(1 0 0 1 -156.4 902.34)" id="v5zPzhxiN"  >
<g style="" vector-effect="non-scaling-stroke"   >
		<g transform="matrix(0.64 0 0 1.02 0 0)" id="slHPr8ca_"  >
<rect style="stroke: rgb(45,62,80); stroke-width: 2; stroke-dasharray: none; stroke-linecap: butt; stroke-dashoffset: 0; stroke-linejoin: miter; stroke-miterlimit: 4; fill: rgb(255,255,255); fill-opacity: 0; fill-rule: nonzero; opacity: 1;" vector-effect="non-scaling-stroke"  x="-133.5" y="-36.5" rx="0" ry="0" width="267" height="73" />
</g>
		<g transform="matrix(1.41 0 0 1.41 0 0)" style="" id="rfeUEhQk2"  >
		<text xml:space="preserve" font-family="Handlee" font-size="22" font-style="normal" font-weight="normal" style="stroke: rgb(45,62,80); stroke-width: 1; stroke-dasharray: none; stroke-linecap: butt; stroke-dashoffset: 0; stroke-linejoin: miter; stroke-miterlimit: 4; fill: rgb(45,62,80); fill-rule: nonzero; opacity: 1; white-space: pre;" ><tspan x="-30.34" y="6.91" >Footer</tspan></text>
</g>
</g>
</g>
<g transform="matrix(1 0 0 1 -156.4 781.25)" id="eBIWrFtwa"  >
<g style="" vector-effect="non-scaling-stroke"   >
		<g transform="matrix(0.64 0 0 1.02 0 0)" id="br4nZ3PFa"  >
<rect style="stroke: rgb(45,62,80); stroke-width: 2; stroke-dasharray: none; stroke-linecap: butt; stroke-dashoffset: 0; stroke-linejoin: miter; stroke-miterlimit: 4; fill: rgb(255,255,255); fill-opacity: 0; fill-rule: nonzero; opacity: 1;" vector-effect="non-scaling-stroke"  x="-133.5" y="-36.5" rx="0" ry="0" width="267" height="73" />
</g>
		<g transform="matrix(1.41 0 0 1.41 0 0)" style="" id="tJfySR2Zxz"  >
		<text xml:space="preserve" font-family="Handlee" font-size="22" font-style="normal" font-weight="normal" style="stroke: rgb(45,62,80); stroke-width: 1; stroke-dasharray: none; stroke-linecap: butt; stroke-dashoffset: 0; stroke-linejoin: miter; stroke-miterlimit: 4; fill: rgb(45,62,80); fill-rule: nonzero; opacity: 1; white-space: pre;" ><tspan x="-51.63" y="6.91" >Newsletter</tspan></text>
</g>
</g>
</g>
<g transform="matrix(1 0 0 1 207.9 657.45)" id="3tn6xGR9jY"  >
<g style=""   >
		<g transform="matrix(1 0 0 1 0 3.18)"  >
<path style="stroke: rgb(255,0,0); stroke-width: 2; stroke-dasharray: none; stroke-linecap: round; stroke-dashoffset: 0; stroke-linejoin: miter; stroke-miterlimit: 4; fill: none; fill-rule: nonzero; opacity: 1;"  transform=" translate(-207.4, -660.13)" d="M -69.96000000000001 662.8887861060931 Q 229.4321238436613 659.9059002109004 484.76924768732255 657.3619404852597" stroke-linecap="round" />
</g>
		<g transform="matrix(0.01 1 -1 0.01 268.37 0)"  >
<polygon style="stroke: rgb(255,0,0); stroke-width: 2; stroke-dasharray: none; stroke-linecap: round; stroke-dashoffset: 0; stroke-linejoin: miter; stroke-miterlimit: 4; fill: rgb(255,0,0); fill-rule: nonzero; opacity: 1;"  points="-7.5 7.5,0 -7.5,7.5 7.5" /></g>
</g>
</g>
<g transform="matrix(1 0 0 1 21.31 -211.08)" id="HAVlhEXh99"  >
<g style=""   >
		<g transform="matrix(1 0 0 1 -0.09 3.92)"  >
<path style="stroke: rgb(255,0,0); stroke-width: 2; stroke-dasharray: none; stroke-linecap: round; stroke-dashoffset: 0; stroke-linejoin: miter; stroke-miterlimit: 4; fill: none; fill-rule: nonzero; opacity: 1;"  transform=" translate(-20.72, 207.66)" d="M -69.95999999999998 -189.44971382696028 Q 33.96034999999998 -210.31999999999996 111.40764999999995 -225.87371314982343" stroke-linecap="round" />
</g>
		<g transform="matrix(0.2 0.98 -0.98 0.2 81.76 -13.12)"  >
<polygon style="stroke: rgb(255,0,0); stroke-width: 2; stroke-dasharray: none; stroke-linecap: round; stroke-dashoffset: 0; stroke-linejoin: miter; stroke-miterlimit: 4; fill: rgb(255,0,0); fill-rule: nonzero; opacity: 1;"  points="-7.5 7.5,0 -7.5,7.5 7.5" /></g>
</g>
</g>
<g transform="matrix(1.32 0 0 1.36 618.8 655.77)" style="" id="mI_gfoXcUc"  >
		<text xml:space="preserve" font-family="Handlee" font-size="22" font-style="normal" font-weight="normal" style="stroke: rgb(45,62,80); stroke-width: 1; stroke-dasharray: none; stroke-linecap: butt; stroke-dashoffset: 0; stroke-linejoin: miter; stroke-miterlimit: 4; fill: rgb(45,62,80); fill-rule: nonzero; opacity: 1; white-space: pre;" ><tspan x="-79.75" y="6.91" >FeaturesSection2</tspan></text>
</g>
<g transform="matrix(1.32 0 0 1.36 618.16 759.64)" style="" id="3gVCt_qpNN"  >
		<text xml:space="preserve" font-family="Handlee" font-size="22" font-style="normal" font-weight="normal" style="stroke: rgb(45,62,80); stroke-width: 1; stroke-dasharray: none; stroke-linecap: butt; stroke-dashoffset: 0; stroke-linejoin: miter; stroke-miterlimit: 4; fill: rgb(45,62,80); fill-rule: nonzero; opacity: 1; white-space: pre;" ><tspan x="-79.26" y="6.91" >FeaturesSection3</tspan></text>
</g>
<g transform="matrix(1.32 0 0 1.36 615.26 552.05)" style="" id="oaEVDk3OqH"  >
		<text xml:space="preserve" font-family="Handlee" font-size="22" font-style="normal" font-weight="normal" style="stroke: rgb(45,62,80); stroke-width: 1; stroke-dasharray: none; stroke-linecap: butt; stroke-dashoffset: 0; stroke-linejoin: miter; stroke-miterlimit: 4; fill: rgb(45,62,80); fill-rule: nonzero; opacity: 1; white-space: pre;" ><tspan x="-77.22" y="6.91" >FeaturesSection1</tspan></text>
</g>
<g transform="matrix(1.41 0 0 1.41 229.41 535.17)" style="" id="VAwZhA47oZ"  >
		<text xml:space="preserve" font-family="Handlee" font-size="22" font-style="normal" font-weight="normal" style="stroke: rgb(45,62,80); stroke-width: 1; stroke-dasharray: none; stroke-linecap: butt; stroke-dashoffset: 0; stroke-linejoin: miter; stroke-miterlimit: 4; fill: rgb(45,62,80); fill-rule: nonzero; opacity: 1; white-space: pre;" ><tspan x="-61.04" y="6.91" >CurrencyItem</tspan></text>
</g>
<g transform="matrix(1 0 0 1 21.36 -146.68)" id="nJtrLenO1c"  >
<g style=""   >
		<g transform="matrix(1 0 0 1 0 -3.47)"  >
<path style="stroke: rgb(255,0,0); stroke-width: 2; stroke-dasharray: none; stroke-linecap: round; stroke-dashoffset: 0; stroke-linejoin: miter; stroke-miterlimit: 4; fill: none; fill-rule: nonzero; opacity: 1;"  transform=" translate(-20.86, 150.65)" d="M -69.95999999999998 -161.63248780231885 Q 34.21000000000001 -149.02999999999997 111.67999999999999 -139.65767850584962" stroke-linecap="round" />
</g>
		<g transform="matrix(-0.12 0.99 -0.99 -0.12 81.88 6)"  >
<polygon style="stroke: rgb(255,0,0); stroke-width: 2; stroke-dasharray: none; stroke-linecap: round; stroke-dashoffset: 0; stroke-linejoin: miter; stroke-miterlimit: 4; fill: rgb(255,0,0); fill-rule: nonzero; opacity: 1;"  points="-7.5 7.5,0 -7.5,7.5 7.5" /></g>
</g>
</g>
<g transform="matrix(1 0 0 1 29.88 533.8)" id="leYibG-G0s"  >
<g style=""   >
		<g transform="matrix(1 0 0 1 0 0.95)"  >
<path style="stroke: rgb(255,0,0); stroke-width: 2; stroke-dasharray: none; stroke-linecap: round; stroke-dashoffset: 0; stroke-linejoin: miter; stroke-miterlimit: 4; fill: none; fill-rule: nonzero; opacity: 1;"  transform=" translate(-29.38, -534.25)" d="M -69.96 534.739484628305 Q 36.506362939339425 534.2133333333333 128.7100266265869 533.7576675651899" stroke-linecap="round" />
</g>
		<g transform="matrix(0 1 -1 0 90.34 0)"  >
<polygon style="stroke: rgb(255,0,0); stroke-width: 2; stroke-dasharray: none; stroke-linecap: round; stroke-dashoffset: 0; stroke-linejoin: miter; stroke-miterlimit: 4; fill: rgb(255,0,0); fill-rule: nonzero; opacity: 1;"  points="-7.5 7.5,0 -7.5,7.5 7.5" /></g>
</g>
</g>
<g transform="matrix(1 0 0 1 30 407.5)" id="hUZSd-Y0yA"  >
<g style=""   >
		<g transform="matrix(1 0 0 1 0 0.5)"  >
<path style="stroke: rgb(255,0,0); stroke-width: 2; stroke-dasharray: none; stroke-linecap: round; stroke-dashoffset: 0; stroke-linejoin: miter; stroke-miterlimit: 4; fill: none; fill-rule: nonzero; opacity: 1;"  transform=" translate(-29.5, -407.5)" d="M -69.95999999999997 407.5 Q 37.060000000000116 407.5 128.95666666666676 407.5" stroke-linecap="round" />
</g>
		<g transform="matrix(0 1 -1 0 90.46 0)"  >
<polygon style="stroke: rgb(255,0,0); stroke-width: 2; stroke-dasharray: none; stroke-linecap: round; stroke-dashoffset: 0; stroke-linejoin: miter; stroke-miterlimit: 4; fill: rgb(255,0,0); fill-rule: nonzero; opacity: 1;"  points="-7.5 7.5,0 -7.5,7.5 7.5" /></g>
</g>
</g>
<g transform="matrix(1 0 0 1 30 407.5)" id="hUZSd-Y0yA"  >
<g style=""   >
		<g transform="matrix(1 0 0 1 0 0.5)" id="siE1jNLyy"  >
<path style="stroke: rgb(255,0,0); stroke-width: 2; stroke-dasharray: none; stroke-linecap: round; stroke-dashoffset: 0; stroke-linejoin: miter; stroke-miterlimit: 4; fill: none; fill-rule: nonzero; opacity: 1;"  transform=" translate(-29.5, -407.5)" d="M -69.95999999999997 407.5 Q 37.060000000000116 407.5 128.95666666666676 407.5" stroke-linecap="round" />
</g>
		<g transform="matrix(0 1 -1 0 90.46 0)" id="9P934kl_sS"  >
<polygon style="stroke: rgb(255,0,0); stroke-width: 2; stroke-dasharray: none; stroke-linecap: round; stroke-dashoffset: 0; stroke-linejoin: miter; stroke-miterlimit: 4; fill: rgb(255,0,0); fill-rule: nonzero; opacity: 1;"  points="-7.5 7.5,0 -7.5,7.5 7.5" /></g>
</g>
</g>
<g transform="matrix(1 0 0 1 29.66 781.25)" id="Wc22r761pp"  >
<g style=""   >
		<g transform="matrix(1 0 0 1 0 0.5)"  >
<path style="stroke: rgb(255,0,0); stroke-width: 2; stroke-dasharray: none; stroke-linecap: round; stroke-dashoffset: 0; stroke-linejoin: miter; stroke-miterlimit: 4; fill: none; fill-rule: nonzero; opacity: 1;"  transform=" translate(-29.16, -781.25)" d="M -69.96000000000002 781.25 Q 36.50749999999999 781.25 128.29 781.25" stroke-linecap="round" />
</g>
		<g transform="matrix(0 1 -1 0 90.13 0)"  >
<polygon style="stroke: rgb(255,0,0); stroke-width: 2; stroke-dasharray: none; stroke-linecap: round; stroke-dashoffset: 0; stroke-linejoin: miter; stroke-miterlimit: 4; fill: rgb(255,0,0); fill-rule: nonzero; opacity: 1;"  points="-7.5 7.5,0 -7.5,7.5 7.5" /></g>
</g>
</g>
<g transform="matrix(1 0 0 1 23.62 519.74)" style="" id="s7TtS-gWSF"  >
		<text xml:space="preserve" font-family="Handlee" font-size="22" font-style="normal" font-weight="normal" style="stroke: rgb(45,62,80); stroke-width: 1; stroke-dasharray: none; stroke-linecap: butt; stroke-dashoffset: 0; stroke-linejoin: miter; stroke-miterlimit: 4; fill: rgb(45,62,80); fill-rule: nonzero; opacity: 1; white-space: pre;" ><tspan x="-42.7" y="6.91" >.map - jsx</tspan></text>
</g>
<g transform="matrix(1.66 0 0 1.3 216.63 -248.68)" style="" id="A4T9wtfyPs"  >
		<text xml:space="preserve" font-family="Handlee" font-size="22" font-style="normal" font-weight="normal" style="stroke: rgb(45,62,80); stroke-width: 1; stroke-dasharray: none; stroke-linecap: butt; stroke-dashoffset: 0; stroke-linejoin: miter; stroke-miterlimit: 4; fill: rgb(45,62,80); fill-rule: nonzero; opacity: 1; white-space: pre;" ><tspan x="-18.35" y="6.91" >Nav</tspan></text>
</g>
<g transform="matrix(1 0 0 1 615.26 718.38)" style="" id="isD6Ok-5zW"  >
		<text xml:space="preserve" font-family="Handlee" font-size="22" font-style="normal" font-weight="normal" style="stroke: rgb(45,62,80); stroke-width: 1; stroke-dasharray: none; stroke-linecap: butt; stroke-dashoffset: 0; stroke-linejoin: miter; stroke-miterlimit: 4; fill: rgb(45,62,80); fill-rule: nonzero; opacity: 1; white-space: pre;" ><tspan x="-17.4" y="6.91" style="white-space: pre; ">       </tspan></text>
</g>
<g transform="matrix(1 0 0 1 662.85 734.63)" style="" id="dVkIuFLEbY"  >
		<text xml:space="preserve" font-family="Handlee" font-size="22" font-style="normal" font-weight="normal" style="stroke: rgb(45,62,80); stroke-width: 1; stroke-dasharray: none; stroke-linecap: butt; stroke-dashoffset: 0; stroke-linejoin: miter; stroke-miterlimit: 4; fill: rgb(45,62,80); fill-rule: nonzero; opacity: 1; white-space: pre;" ><tspan x="-2.49" y="6.91" style="white-space: pre; "> </tspan></text>
</g>
<g transform="matrix(1 0 0 1 -368.6 779.89)" style="" id="0FW9cBRgV"  >
		<text xml:space="preserve" font-family="Handlee" font-size="22" font-style="normal" font-weight="normal" style="stroke: rgb(45,62,80); stroke-width: 1; stroke-dasharray: none; stroke-linecap: butt; stroke-dashoffset: 0; stroke-linejoin: miter; stroke-miterlimit: 4; fill: rgb(45,62,80); fill-rule: nonzero; opacity: 1; white-space: pre;" ></text>
</g>
<g transform="matrix(1 0 0 1 -442.61 669.96)" style="" id="SUs6yEW91Q"  >
		<text xml:space="preserve" font-family="Handlee" font-size="22" font-style="normal" font-weight="normal" style="stroke: rgb(45,62,80); stroke-width: 1; stroke-dasharray: none; stroke-linecap: butt; stroke-dashoffset: 0; stroke-linejoin: miter; stroke-miterlimit: 4; fill: rgb(45,62,80); fill-rule: nonzero; opacity: 1; white-space: pre;" ></text>
</g>
<g transform="matrix(1 0 0 1.02 -161.99 -140.48)" id="T7vejTC2ny"  >
<ellipse style="stroke: rgb(45,62,80); stroke-width: 2; stroke-dasharray: none; stroke-linecap: butt; stroke-dashoffset: 0; stroke-linejoin: miter; stroke-miterlimit: 4; fill: rgb(255,255,255); fill-opacity: 0; fill-rule: nonzero; opacity: 1;"  cx="0" cy="0" rx="0" ry="0" />
</g>
<g transform="matrix(1 0 0 1.02 -161.99 -271.48)" id="T7vejTC2ny"  >
<ellipse style="stroke: rgb(45,62,80); stroke-width: 2; stroke-dasharray: none; stroke-linecap: butt; stroke-dashoffset: 0; stroke-linejoin: miter; stroke-miterlimit: 4; fill: rgb(255,255,255); fill-opacity: 0; fill-rule: nonzero; opacity: 1;"  cx="0" cy="0" rx="0" ry="0" />
</g>
</svg>